# xmcd CD database file
#
# Track frame offsets:
#	150
#	26950
#	72007
#	94875
#	117345
#	162507
#	171202
#	193200
#	233925
#	259875
#	292800
#	309450
#	328650
#
# Disc length: 4504 seconds
#
# Revision: 7
# Processed by: cddbd v1.5.2PL0 Copyright (c) Steve Scherf et al.
# Submitted via: CDex 1.82
#
DISCID=bf11960d
DTITLE=John Williams - Rodrigo, Giuliani, Vivaldi
DYEAR=1991
DGENRE=Classical
TTITLE0=Concierto de Aranjuez, Allegro con spririto (Joaquin Rodrigo)
TTITLE1=Concierto de Aranjuez, dagio (Joaquin Rodrigo)
TTITLE2=Concierto de Aranjuez, Allegro gentile (Joaquin Rodrigo)
TTITLE3=Fantasia para un gentilhombre, Villano y Ricercar. Adagietto - Andantemoderato (Joaquin Rodrigo)
TTITLE4=Fantasia para un gentilhombre, Espanoleta y Fanfare de la cabalerria de Napoles. Adagio - Allegretto (Joaquin Rodrigo)
TTITLE5=Fantasia para un gentilhombre, Danza de las hachas. Allegro con brio (Joaquin Rodrigo)
TTITLE6=Fantasia para un gentilhombre, Canario. Allegro ma non troppo (Joaquin Rodrigo)
TTITLE7=Concerto for Guitar and String Orchestra in A major,Op. 30, Allegro maestoso (Mauro Giuliani)
TTITLE8=Concerto for Guitar and String Orchestra in A major,Op. 30, Siciliana. Andantino (Mauro Giuliani)
TTITLE9=Concerto for Guitar and String Orchestra in A major,Op. 30, Polonaise. Allegretto (Mauro Giuliani)
TTITLE10=Concerto for Guitar and String Orchestra in D major, RV 93, Allegro giusto (Antonio Vivaldi)
TTITLE11=Concerto for Guitar and String Orchestra in D major, Largo (Antonio Vivaldi)
TTITLE12=Concerto for Guitar and String Orchestra in D major, Allegro (Antonio Vivaldi)
EXTD=YEAR: 1991
EXTT0=
EXTT1=
EXTT2=
EXTT3=
EXTT4=
EXTT5=
EXTT6=
EXTT7=
EXTT8=
EXTT9=
EXTT10=
EXTT11=
EXTT12=
PLAYORDER=
